# xmcd CD database file
#
# Track frame offsets:
#	187
#	14182
#	31042
#	50295
#	64557
#	82505
#	93432
#	105675
#	122100
#	143832
#	153042
#	167682
#	180292
#	195810
#	214280
#	228217
#
# Disc length: 3264 seconds
#
# Revision: 2
# Processed by: cddbd v1.5.2PL0 Copyright (c) Steve Scherf et al.
# Submitted via: CDex 1.70beta2
#
DISCID=b90cbe10
DTITLE=THE GLENN MILLER ORCHESTRA - THE GLENN MILLER ORCHESTRA DELUX disc2
DYEAR=2005
DGENRE=Jazz
TTITLE0=THE AMERICAN PATROL (アメリカン・パトロール)
TTITLE1=STARDUST (スターダスト)
TTITLE2=ST.LOUIS BLUES MARCH (セントルイス・ブルース・マーチ)
TTITLE3=SONG OF THE VOLGA BOATMEN (ヴォルガの舟歌)
TTITLE4=OVER THE RAINBOW (虹の彼方に)
TTITLE5=I WANT TO BE HAPPY (アイ・ウォント・トゥ・ビー・ハッピー)
TTITLE6=THE STORY OF A STARRY NIGHT (星降る宵の物語)
TTITLE7=DREAM (Vocal:Moonlight Serenaders) (ドリーム（ヴォーカル：ムーンライト・セレネーダーズ）)
TTITLE8=YESTERDAYS (イエスタデイズ)
TTITLE9=NOW IS THE HOUR (ナウ・イズ・ジ・アワー)
TTITLE10=FAR AWAY PLACES (ファーラウェイ・プレイセス)
TTITLE11=RUNNING WILD (ランニング・ワイルド)
TTITLE12=SERENADE IN BLUE (セレナーデ・イン・ブルー)
TTITLE13=BODY AND SOUL (身も心も)
TTITLE14=WHEN YOU WISH UPON A STAR (星に願いを)
TTITLE15=MOONLIGHT SERENADE (ムーンライト・セレナーデ)
EXTD=YEAR: 2005
EXTT0=
EXTT1=
EXTT2=
EXTT3=
EXTT4=
EXTT5=
EXTT6=
EXTT7=
EXTT8=
EXTT9=
EXTT10=
EXTT11=
EXTT12=
EXTT13=
EXTT14=
EXTT15=
PLAYORDER=
